# xmcd CD database file
#
# Track frame offsets:
#	150
#	2536
#	56239
#	111611
#	136633
#	164793
#	199253
#	245946
#	294548
#
# Disc length: 4657 seconds
#
# Revision: 0
# Processed by: cddbd v1.5.2PL0 Copyright (c) Steve Scherf et al.
# Submitted via: CDex 1.51
#
DISCID=8d122f09
DTITLE=Dolores Ashcroft Nowicki - Your Unseen Power - 07 - Going Deeper into the Inner Worlds
DYEAR=2006
DGENRE=New Age
TTITLE0=Introduction
TTITLE1=Empowerment exercise
TTITLE2=Ritual on the higher levels
TTITLE3=The minor and major mysteries
TTITLE4=Body energy
TTITLE5=Emotional and mental energy
TTITLE6=Building thought forms
TTITLE7=The meaning of symbols
TTITLE8=Pathworking - Flight of the dove
EXTD=YEAR: 2006
EXTT0=
EXTT1=
EXTT2=
EXTT3=
EXTT4=
EXTT5=
EXTT6=
EXTT7=
EXTT8=
PLAYORDER=
